<?xml version="1.0" encoding="UTF-8" standalone="no"?>
<svg
   xmlns:dc="http://purl.org/dc/elements/1.1/"
   xmlns:cc="http://creativecommons.org/ns#"
   xmlns:rdf="http://www.w3.org/1999/02/22-rdf-syntax-ns#"
   xmlns:svg="http://www.w3.org/2000/svg"
   xmlns="http://www.w3.org/2000/svg"
   xmlns:sodipodi="http://sodipodi.sourceforge.net/DTD/sodipodi-0.dtd"
   xmlns:inkscape="http://www.inkscape.org/namespaces/inkscape"
   version="1.1"
   x="0px"
   y="0px"
   viewBox="0 0 100 125"
   enable-background="new 0 0 100 100"
   xml:space="preserve"
   id="svg2"
   inkscape:version="0.91 r13725"
   sodipodi:docname="Q10874_noun_3918_ccJordanDelcros_blind.svg"><metadata
     id="metadata14"><rdf:RDF><cc:Work
         rdf:about=""><dc:format>image/svg+xml</dc:format><dc:type
           rdf:resource="http://purl.org/dc/dcmitype/StillImage" /><dc:title></dc:title></cc:Work></rdf:RDF></metadata><defs
     id="defs12" /><sodipodi:namedview
     pagecolor="#ffffff"
     bordercolor="#666666"
     borderopacity="1"
     objecttolerance="10"
     gridtolerance="10"
     guidetolerance="10"
     inkscape:pageopacity="0"
     inkscape:pageshadow="2"
     inkscape:window-width="1680"
     inkscape:window-height="988"
     id="namedview10"
     showgrid="false"
     inkscape:zoom="5.3400704"
     inkscape:cx="39.241312"
     inkscape:cy="54.031882"
     inkscape:window-x="-8"
     inkscape:window-y="-8"
     inkscape:window-maximized="1"
     inkscape:current-layer="svg2" /><path
     d="m 96.824,61.614 c 0,0 -14.807,-26.345 -47.113,-26.345 -0.603,0 -1.196,0.012 -1.786,0.03 l -2.82,-13.258 -4.326,0.92 2.691,12.648 C 15.567,38.657 3.176,61.421 3.176,61.421 c 0,0 2.574,5.073 8.056,10.842 L 8.975,61.66 C 8.928,61.578 8.903,61.534 8.903,61.534 c 0,0 0.899,-1.515 2.759,-3.73 l 3.957,18.601 C 17.244,77.79 19.037,79.151 21,80.44 L 15.352,53.892 c 1.121,-1.062 2.396,-2.167 3.821,-3.266 l 6.976,32.789 c 1.574,0.787 3.236,1.516 4.982,2.162 l -8.02,-37.688 c 1.309,-0.817 2.71,-1.605 4.209,-2.346 l 8.853,41.602 c 1.519,0.387 3.093,0.707 4.725,0.957 l -3.37,-15.838 c 1.522,1.848 3.447,3.346 5.639,4.373 l 2.548,11.973 c 1.056,0.062 2.13,0.1 3.229,0.1 0.44,0 0.876,-0.008 1.312,-0.02 L 47.985,78.024 c 0.662,0.082 1.334,0.129 2.019,0.129 0.844,0 1.673,-0.064 2.48,-0.189 l 5.106,23.996 4.324,-0.92 -2.822,-13.268 C 84.242,82.971 96.824,61.614 96.824,61.614 Z M 34.429,57.703 31.457,43.734 c 1.396,-0.533 2.866,-1.017 4.401,-1.44 l 1.941,9.125 c -1.554,1.791 -2.722,3.93 -3.37,6.284 z m 7.204,-9.523 -1.462,-6.869 c 1.41,-0.257 2.87,-0.462 4.383,-0.605 l 1.214,5.705 c -1.472,0.398 -2.861,0.996 -4.135,1.769 z m 8.538,-2.33 -1.146,-5.38 c 0.24,-0.003 0.479,-0.008 0.722,-0.008 1.056,0 2.088,0.032 3.103,0.089 10.366,1.643 18.293,10.619 18.293,21.448 0,9 -5.478,16.714 -13.278,20.007 L 56.733,76.68 c 5.559,-2.551 9.42,-8.164 9.42,-14.682 C 66.152,53.134 59.014,45.941 50.171,45.85 Z m 19.017,33.556 c 4.094,-4.641 6.58,-10.73 6.58,-17.408 0,-6.988 -2.726,-13.335 -7.164,-18.05 15.316,6.024 22.494,17.74 22.494,17.74 0,0 -7.305,11.386 -21.91,17.718 z"
     id="path4"
     inkscape:connector-curvature="0"
     style="fill:#000000" /></svg>