<?xml version="1.0" encoding="utf-8"?>
<!-- Generator: Adobe Illustrator 26.3.1, SVG Export Plug-In . SVG Version: 6.00 Build 0)  -->
<svg version="1.2" baseProfile="tiny" id="Artwork" xmlns="http://www.w3.org/2000/svg" xmlns:xlink="http://www.w3.org/1999/xlink"
	 x="0px" y="0px" width="214.5px" height="168px" viewBox="0 0 214.5 168" overflow="visible" xml:space="preserve">
<g>
	<g>
		<path fill="#00B53E" d="M174.6,69.5c-4.3-5-8.8-9.9-13.9-14.2C142.5,40.4,118.4,33.2,95,35.1c-5,0.1-9.8,1.8-14.8,2.5
			c-4.7-6.5-9.5-13-14.3-19.5c-1-1.5-2.6-2.6-4.4-3.1h-1c-3.2,0.2-5.7,2.3-8.1,4.2c-2.4,2-3.2,5.9-1.1,8.4c3.8,5.4,7.9,10.7,11.9,16
			c-0.1,0-0.2,0.1-0.2,0.1l7.8,10.7c0.1,0,0.1-0.1,0.2-0.1c22.6,32.2,45.7,64,68.5,96.1c1.2,1.8,2.7,3.6,5,4.1h1.1
			c3.2-0.2,5.7-2.3,8.1-4.2c2.4-2,3.1-5.8,1.2-8.4c-3.9-5.4-8-10.7-11.9-16.1c13.2-6.6,25.1-16.1,33.5-28.3c2.5-3.8,5.7-7.5,6-12.3
			v-1.1C182,78.5,177.5,74.2,174.6,69.5z M138.6,96c-1.4,5.1-4.5,9.5-7.6,13.7c-1.2-3-3.7-5.2-5.2-8c5-6.2,6.8-14.6,5.4-22.4
			c-0.5-3-2.2-5.7-2.8-8.6c0.4,6.2-4.6,12.1-10.8,12.5c-5.9,0.7-11.5-3.9-12.7-9.5c-1.1-5.6,2.6-11.6,8-13.3
			c0.9-0.4,2.2-0.1,2.8-0.9c-6.6-3.1-14.2-3.3-21.2-1.7c-1.6-2.5-3.4-4.8-5-7.2c10.5-4.2,23.1-3.1,32.7,2.7
			C136.7,61.4,144.1,80.3,138.6,96z"/>
	</g>
	<path fill="#0072BF" d="M30.7,70.5c-3.1,4.2-6.5,8.6-7,13.9v1c0.2,3.8,2.3,7.1,4.4,10.1c10.5,16.4,27.3,28.2,45.5,34.9
		c-11.8-16.1-23-32.6-34.7-48.7c2.6-3.4,5.5-6.6,7.9-10.1c0.6,1.2,1.2,2.3,2,3.3c14.1,19.6,27.7,39.5,41.9,59.1
		c7.2,1.7,14.8,1,22.1,0.6c-17.6-24.6-35-49.3-52.4-74c3.3-2.2,6.9-3.9,10.4-5.9l-7.8-10.7C50.3,50.2,39.1,59.2,30.7,70.5z"/>
</g>
</svg>
