<?xml version="1.0" encoding="iso-8859-1"?>
<!-- Generator: Adobe Illustrator 19.0.0, SVG Export Plug-In . SVG Version: 6.00 Build 0)  -->
<svg version="1.1" id="Layer_1" xmlns="http://www.w3.org/2000/svg" xmlns:xlink="http://www.w3.org/1999/xlink" x="0px" y="0px"
	 viewBox="0 0 512.002 512.002" style="enable-background:new 0 0 512.002 512.002;" xml:space="preserve">
<path style="fill:#E8F2FB;" d="M256.001,451.326c-121.026,0-222.673-80.617-255.274-190.331c-0.969-3.26-0.969-6.731,0-9.99
	C33.292,141.411,134.851,60.674,256.001,60.674c121.026,0,222.673,80.617,255.274,190.331c0.969,3.26,0.969,6.731,0,9.99
	C478.71,370.589,377.152,451.326,256.001,451.326z"/>
<path style="fill:#C7E9F4;" d="M511.275,251.005C478.71,141.412,377.152,60.674,256.001,60.674v390.652
	c121.025,0,222.673-80.615,255.274-190.331C512.244,257.736,512.244,254.264,511.275,251.005z"/>
<path style="fill:#51B3DA;" d="M256.001,122.811c-69.296,0.199-133.038,55.558-133.038,133.19
	c0,73.353,59.685,133.026,133.038,133.038c73.353-0.012,133.026-59.685,133.026-133.038
	C389.027,178.369,325.297,123.009,256.001,122.811z"/>
<path style="fill:#39A3DB;" d="M256.001,122.811v266.228c73.353-0.012,133.026-59.685,133.026-133.038
	C389.027,178.369,325.297,123.009,256.001,122.811z"/>
<path style="fill:#80D0E1;" d="M256.001,324.011c-37.502,0-68.011-30.51-68.011-68.012c0-48.575,49.632-81.483,94.277-62.743
	C350.392,221.76,330.011,324.011,256.001,324.011z"/>
<path style="fill:#48AEE2;" d="M282.267,193.258c-8.701-3.652-17.591-5.335-26.266-5.33v136.084
	C330.011,324.011,350.392,221.76,282.267,193.258z"/>
<path style="fill:#FF5E5B;" d="M120.801,493.07c-8.413-4.799-11.344-15.509-6.546-23.922l253.023-443.67
	c4.798-8.413,15.506-11.343,23.922-6.547c8.413,4.798,11.344,15.509,6.546,23.922l-253.023,443.67
	C139.931,494.927,129.227,497.874,120.801,493.07z"/>
<g>
</g>
<g>
</g>
<g>
</g>
<g>
</g>
<g>
</g>
<g>
</g>
<g>
</g>
<g>
</g>
<g>
</g>
<g>
</g>
<g>
</g>
<g>
</g>
<g>
</g>
<g>
</g>
<g>
</g>
</svg>
